<svg width="36" height="36" viewBox="0 0 36 36" fill="none" xmlns="http://www.w3.org/2000/svg">
<path d="M36 18C36 20.3638 35.5344 22.7044 34.6298 24.8883C33.7252 27.0722 32.3994 29.0565 30.7279 30.7279L18 18H36Z" fill="#163F5A"/>
<path d="M30.7279 30.7279C29.0565 32.3994 27.0722 33.7252 24.8883 34.6298C22.7044 35.5344 20.3638 36 18 36L18 18L30.7279 30.7279Z" fill="#354C79"/>
<path d="M18 36C13.2261 36 8.64773 34.1036 5.27208 30.7279L18 18V36Z" fill="#62548D"/>
<path d="M30.7279 5.27208C34.1036 8.64773 36 13.2261 36 18L18 18L30.7279 5.27208Z" fill="#F3A93C"/>
<path d="M18 0C22.7739 5.69281e-08 27.3523 1.89642 30.7279 5.27207L18 18V0Z" fill="#EF8351"/>
<path d="M5.27208 5.27208C6.94353 3.60062 8.92784 2.27475 11.1117 1.37017C13.2956 0.465584 15.6362 -2.8188e-08 18 0V18L5.27208 5.27208Z" fill="#E8686E"/>
<path d="M0 18C2.0665e-07 15.6362 0.465584 13.2956 1.37017 11.1117C2.27475 8.92784 3.60063 6.94353 5.27208 5.27208L18 18L0 18Z" fill="#C55A86"/>
<path d="M5.27208 30.7279C1.89642 27.3523 7.20838e-07 22.7739 0 18L18 18L5.27208 30.7279Z" fill="#965792"/>
</svg>
